<svg xmlns="http://www.w3.org/2000/svg" xmlns:xlink="http://www.w3.org/1999/xlink" id="hero" x="0px" y="0px" viewBox="0 0 900 900" style="enable-background:new 0 0 900 900;" xml:space="preserve"><style type="text/css">	.st0{fill:url(#mround_00000002347530668058572020000011425494105307521457_);}	.st1{fill:#FFFFFF;}</style><g>	<g id="mlogo">					<linearGradient id="mround_00000088846262342045515490000005529593576421353879_" gradientUnits="userSpaceOnUse" x1="98.3866" y1="-5847.1421" x2="808.0947" y2="-5437.3926" gradientTransform="matrix(1 0 0 1 0 6095.3501)">			<stop offset="6.680000e-02" style="stop-color:#13E3EE"></stop>			<stop offset="0.9107" style="stop-color:#03A9F4"></stop>		</linearGradient>		<path id="mround" style="fill:url(#mround_00000088846262342045515490000005529593576421353879_);" d="M633,82.7L633,82.7   c-2.5-1.3-5.3-2.1-8.3-2.1c-9.4,0-17,7.7-17,17.2c0,5.8,2.9,11,7.3,14.1l-0.1,0.1c0.4,0.2,0.8,0.4,1.2,0.6   c0.8,0.5,1.6,0.9,2.4,1.2c124,61.6,209.3,190.4,209.3,339.2c0,208.8-167.8,378-374.7,378S78.4,661.8,78.4,453   c0-148.9,85.3-277.7,209.4-339.3c6.3-2.5,10.7-8.7,10.7-15.9c0-9.5-7.6-17.2-17-17.2c-2.4,0-4.8,0.5-6.9,1.5V82   C138.4,148.9,44.4,289.9,44.4,453c0,227.7,183,412.4,408.8,412.4S862,680.8,862,453C861.8,290.4,768.5,149.8,633,82.7z"></path>		<g>			<path class="st1" d="M379.4,54.7c2.4,0,4.4-0.8,6-2.3c1.6-1.5,2.4-3.5,2.4-5.8c0-2.4-0.8-4.4-2.4-6c-1.6-1.6-3.6-2.4-6-2.4h-10.6    v-9.6c0-2.6-0.8-4.8-2.5-6.5c-1.6-1.7-3.8-2.6-6.4-2.6c-2.6,0-4.8,0.9-6.5,2.6c-1.7,1.7-2.6,3.9-2.6,6.5v9.6h-6.9    c-2.4,0-4.4,0.8-6,2.3c-1.6,1.5-2.4,3.5-2.4,5.8c0,2.4,0.8,4.4,2.4,6c1.6,1.6,3.6,2.4,6,2.4h6.9v41.4c0,4.9,0.7,8.7,2.2,11.5    c1.5,2.8,3.4,4.9,5.6,6.2c2.2,1.3,4.6,2.2,7.2,2.5c2.5,0.4,4.9,0.5,7,0.5c3.5,0,6.8-0.9,9.8-2.7c3-1.8,4.6-4.1,4.6-6.9    c0-2.3-0.6-4.1-1.7-5.4c-1.1-1.3-2.4-1.9-3.8-1.9c-1.3,0-2.4,0.2-3.4,0.7c-1,0.4-2.1,0.7-3.3,0.7c-1.1,0-2.1-0.2-3.1-0.6    c-1-0.4-1.7-1-2.2-1.9c-0.5-0.9-0.8-2-0.8-3.4V54.7H379.4z"></path>			<path class="st1" d="M464.8,39.9c-3.7-3.1-9.2-4.6-16.4-4.6c-3.3,0-6.3,0.5-9.1,1.6c-2.8,1-5.3,2.4-7.6,4.1    c-2.3,1.7-4.2,3.5-5.8,5.5c-0.5,0.7-1,1.3-1.5,1.9V15.2c0-2.6-0.8-4.8-2.5-6.5C420,6.9,417.9,6,415.3,6c-2.6,0-4.7,0.9-6.4,2.6    c-1.7,1.7-2.5,3.9-2.5,6.5v92.6c0,2.6,0.8,4.8,2.5,6.5c1.7,1.7,3.8,2.6,6.4,2.6c2.6,0,4.7-0.9,6.4-2.6c1.7-1.7,2.5-3.9,2.5-6.5    V69.4c0-3.3,0.7-6.3,2-8.9c1.3-2.6,3.4-4.8,6.1-6.4c2.7-1.6,5.9-2.4,9.7-2.4c3.9,0,6.9,0.8,9,2.4c2.1,1.6,3.5,3.7,4.3,6.4    c0.8,2.6,1.2,5.6,1.2,8.9v38.4c0,2.6,0.8,4.8,2.5,6.5c1.7,1.7,3.8,2.6,6.4,2.6s4.7-0.9,6.4-2.6c1.7-1.7,2.5-3.9,2.5-6.5V69.4    c0-6.3-0.7-12-2.1-17.2C471.1,47.1,468.5,43,464.8,39.9z"></path>			<path class="st1" d="M561.9,59.7c-2-4.8-4.8-9-8.3-12.7c-3.5-3.6-7.5-6.5-12.1-8.6c-4.5-2.1-9.4-3.1-14.5-3.1    c-6.6,0-12.8,1.7-18.7,5.1c-5.9,3.4-10.7,8.3-14.3,14.6c-3.6,6.3-5.5,14-5.5,23c0,7.7,1.7,14.6,5,20.7    c3.3,6.1,8.1,10.9,14.4,14.5c6.2,3.5,13.6,5.3,22.1,5.3c5,0,9.8-0.8,14.5-2.5c4.7-1.6,8.3-3.6,10.9-5.8c2.8-2.2,4.2-4.6,4.2-7.3    c0-2-0.7-3.7-2.2-5.2c-1.4-1.5-3.3-2.2-5.5-2.2c-1.6,0-3.3,0.4-5.1,1.3c-1.1,0.6-2.3,1.3-3.7,2.2c-1.3,0.9-3.1,1.6-5.3,2.2    c-2.2,0.6-5.1,0.9-8.8,0.9c-4,0-7.8-1-11.3-2.9c-3.5-1.9-6.4-4.8-8.7-8.5c-1.3-2.2-2.2-4.7-2.8-7.4h49.5c2.4,0,4.5-0.7,6.3-2.2    c1.8-1.5,2.7-3.4,2.8-5.8C565,69.6,564,64.5,561.9,59.7z M512,57c1.9-1.9,4.1-3.2,6.7-4c2.6-0.8,5.4-1.2,8.4-1.2    c3.1,0,6,0.7,8.8,2c2.7,1.3,5,3.2,6.9,5.5c1.8,2.3,2.9,4.9,3.1,7.8v1h-39.3c0.2-1.2,0.5-2.4,0.9-3.4    C508.6,61.4,510.1,58.9,512,57z"></path>		</g>	</g>	<path class="st1" d="M603.4,269.5c-3.4-3.3-8.2-5-14.5-5H341.1c-5.4,0-10,1.7-13.8,5c-3.8,3.4-5.7,7.7-5.7,13.2  c0,5,1.9,9.3,5.7,12.9c3.8,3.6,8.4,5.3,13.8,5.3h216.2L382.2,678.5c-1.3,3.4-2,6.5-2,9.4c0,5,2.2,9.2,6.7,12.5  c4.5,3.3,9.4,5,14.8,5c4,0,7.9-1.2,11.5-3.5c3.6-2.3,6.3-5.3,8.1-9.1l185.2-401.5c1.3-2.9,2-6.1,2-9.4  C608.5,277.1,606.8,272.9,603.4,269.5z"></path></g></svg>