<svg xmlns="http://www.w3.org/2000/svg" xmlns:xlink="http://www.w3.org/1999/xlink" id="Layer_1" x="0px" y="0px" viewBox="0 0 392.3 63" style="enable-background:new 0 0 392.3 63;" xml:space="preserve"><style type="text/css">	.st0{fill:#FFFFFF;}	.st1{opacity:0.4;fill:#FFFFFF;enable-background:new    ;}</style><g>	<g>		<path class="st0" d="M247.1,28.5c0,0-3.4,0.8-6.2,1.5l-4.3,1l0,0c0-1.2,0.1-2.4,0.4-3.6c0.4-1.5,1.1-3.2,2.5-3.9   c1.5-0.8,3.3-0.9,4.9-0.3c1.6,0.6,2.4,2.2,2.7,3.9C247,27.6,247.1,28.5,247.1,28.5z M258.4,31c0-11.4-7.1-16.3-16.2-16.3   c-10.3,0-16.7,7.2-16.7,16.3c0,10,5.5,16.4,17.3,16.4c6.4,0,10-1.1,14.3-3.3l-1.6-7.4c-3.3,1.5-6.3,2.4-10.4,2.4   c-4.5,0-7-1.7-8-4.9h21.1C258.3,33.4,258.4,32.4,258.4,31z"></path>		<path class="st0" d="M152.5,28.5c0,0-3.4,0.8-6.2,1.5l-4.3,1l0,0c0-1.2,0.1-2.4,0.4-3.6c0.4-1.5,1.1-3.2,2.5-3.9   c1.5-0.8,3.3-0.9,4.9-0.3c1.6,0.6,2.4,2.2,2.7,3.9C152.5,27.6,152.5,28,152.5,28.5L152.5,28.5z M163.8,31   c0-11.4-7.1-16.3-16.2-16.3c-10.3,0-16.7,7.2-16.7,16.3c0,10,5.5,16.4,17.3,16.4c6.4,0,10-1.1,14.3-3.3l-1.6-7.4   c-3.3,1.5-6.3,2.4-10.4,2.4c-4.5,0-7-1.7-8-4.9h21.1C163.7,33.4,163.8,32.4,163.8,31z"></path>		<path class="st0" d="M126.5,6.4H116v40h10.4L126.5,6.4L126.5,6.4z"></path>		<path class="st0" d="M260.6,15.8h11l2.3,7.1c1.4-3.5,4.7-8,10.5-8c7.9,0,12.2,4,12.2,14.4v17.1h-11c0-3.6,0-7.1,0-10.7   c0-1.6,0-3.3,0-4.9c0-1.5,0.1-3.1-0.7-4.4c-0.5-0.9-1.4-1.6-2.4-2c-1.9-0.9-4-0.9-5.9,0.1c-0.5,0.2-2.7,1.5-2.7,2v19.9h-11V24   L260.6,15.8z"></path>		<path class="st0" d="M304.8,23.8h-5v-8h5v-5l11-2.6v7.6h11v8h-11v9c0,3.5,1.7,5.2,4.2,5.2c2.6,0,4.1-0.3,6.3-1.1l1.3,8.3   c-3,1.3-6.7,1.9-10.5,1.9c-8,0-12.3-3.8-12.3-11.2V23.8L304.8,23.8z"></path>		<path class="st0" d="M347.3,38.4c4,0,6.4-2.9,6.4-7.6s-2.3-7.3-6.2-7.3c-4,0-6.3,2.7-6.3,7.5C341.1,35.5,343.4,38.4,347.3,38.4z    M347.4,14.6c10.3,0,17.8,6.5,17.8,16.5c0,10.1-7.5,16.2-17.9,16.2c-10.3,0-17.7-6.3-17.7-16.2C329.6,21,336.9,14.6,347.4,14.6z"></path>		<path class="st0" d="M215.6,15.7c-1.9-0.8-4.1-1.1-6.2-0.8c-1.1,0.2-2.1,0.5-3.1,0.9c-2.7,1.3-4.7,4.3-5.8,7   c-0.7-3.1-2.9-5.9-6-7.2c-1.9-0.8-4.1-1.1-6.2-0.8c-1.1,0.2-2.1,0.5-3.1,0.9c-2.6,1.3-4.7,4.3-5.8,7v-0.2l-2.2-6.8h-11l2.3,8.3   v22.3h10.9v-20c0-0.1,0.5-0.4,0.6-0.5c1.3-0.9,2.8-1.9,4.4-2c1.6-0.1,3.2,0.7,4.2,2c0.1,0.1,0.2,0.3,0.3,0.4   c0.8,1.3,0.7,2.9,0.7,4.4c0,1.6,0,3.3,0,4.9c0,3.6,0,7.1,0,10.7h11V29.3c0-0.1,0-0.2,0-0.3v-2.6c0-0.1,0.5-0.4,0.6-0.5   c1.3-0.9,2.8-1.9,4.4-2c1.6-0.1,3.2,0.7,4.2,2c0.1,0.1,0.2,0.3,0.3,0.4c0.8,1.3,0.7,2.9,0.7,4.4c0,1.6,0,3.3,0,4.9   c0,3.6,0,7.1,0,10.7h11v-17C221.6,24.3,220.9,17.8,215.6,15.7z"></path>		<path class="st0" d="M391.1,14.9c-5.8,0-9,4.5-10.5,8l-2.3-7.1h-11l2.3,8.3v22.3h11V25.7c1.6-0.3,10,1.3,11.6,1.9V14.9   C391.9,14.9,391.5,14.9,391.1,14.9z"></path>		<path class="st0" d="M100.3,28.5c0,0-3.4,0.8-6.2,1.5l-4.3,1l0,0c0-1.2,0.1-2.4,0.4-3.6c0.4-1.5,1.1-3.2,2.5-3.9   c1.5-0.8,3.3-0.9,4.9-0.3s2.4,2.2,2.7,3.9C100.3,27.6,100.3,28,100.3,28.5L100.3,28.5z M111.6,31c0-11.4-7.1-16.3-16.2-16.3   c-10.3,0-16.7,7.2-16.7,16.3c0,10,5.5,16.4,17.3,16.4c6.4,0,10-1.1,14.3-3.3l-1.6-7.4c-3.3,1.5-6.3,2.4-10.4,2.4   c-4.5,0-7-1.7-8-4.9h21.1C111.5,33.4,111.6,32.4,111.6,31z"></path>		<path class="st1" d="M31.3,0C14,0,0,14.1,0,31.5S14,63,31.3,63s31.3-14.1,31.3-31.5C62.6,14.1,48.6,0,31.3,0z"></path>	</g>	<path class="st0" d="M22.7,46.1h-5.8V16.9h5.8V46.1z M46.1,46.1H28.5v-5.8h17.4v5.8H46.1z M46.1,34.4H28.5v-5.8h17.4v5.8H46.1z   M46.1,22.7H28.5v-5.8h17.4v5.8H46.1z"></path></g></svg>