<svg xmlns="http://www.w3.org/2000/svg" xmlns:xlink="http://www.w3.org/1999/xlink" id="Layer_1" x="0px" y="0px" viewBox="0 0 113 23" style="enable-background:new 0 0 113 23;" xml:space="preserve"><style type="text/css">	.st0{fill-rule:evenodd;clip-rule:evenodd;fill:#7E57C2;}	.st1{fill:#7E57C2;}</style><path class="st0" d="M34.7,0H3.6C1.6,0,0,1.6,0,3.6v11.9c0,2,1.6,3.6,3.6,3.6h14.8l6.7,3.8L23.5,19h11.2c2,0,3.6-1.6,3.6-3.6V3.6 C38.3,1.6,36.7,0,34.7,0z M2.9,2.8c-0.4,0-0.8,0.2-1,0.5c-0.2,0.3-0.3,0.6-0.3,1c0.9,5.9,1.8,9.8,2.6,11.9c0.3,0.8,0.7,1.1,1.1,1.1 c0.7,0,1.4-1,2.4-2.7c0.5-1,1.2-2.5,2.3-4.5c0.8,3,2,5.2,3.5,6.7c0.4,0.4,0.8,0.6,1.2,0.6c0.4,0,0.6-0.2,0.8-0.6 c0.2-0.3,0.2-0.6,0.2-1c-0.1-1.4,0-3.4,0.4-6c0.4-2.6,0.9-4.5,1.5-5.6c0.1-0.2,0.2-0.5,0.2-0.8c0-0.4-0.2-0.7-0.5-0.9 c-0.3-0.2-0.6-0.3-1-0.3c-0.5,0-0.8,0.3-1,0.7c-1,1.8-1.7,4.6-2.1,8.6c-0.6-1.5-1.1-3.3-1.5-5.4c-0.2-0.9-0.6-1.4-1.3-1.3 c-0.5,0-0.9,0.3-1.2,0.9l-3.4,6.5c-0.6-2.3-1.1-5-1.6-8.3C4.1,3.1,3.7,2.7,2.9,2.8z M33.1,3.9c1.1,0.2,1.9,0.8,2.5,1.8 c0.5,0.8,0.8,1.9,0.8,3.1c0,1.6-0.4,3.1-1.2,4.4c-0.9,1.6-2.2,2.3-3.7,2.3c-0.3,0-0.5,0-0.8-0.1c-1.1-0.2-1.9-0.8-2.5-1.8 c-0.5-0.9-0.8-1.9-0.8-3.1c0-1.6,0.4-3.1,1.2-4.4c1-1.6,2.2-2.3,3.7-2.3C32.5,3.8,32.8,3.8,33.1,3.9z M32.4,12.3 c0.6-0.5,1-1.3,1.2-2.3c0.1-0.4,0.1-0.8,0.1-1.2c0-0.5-0.1-0.9-0.3-1.4c-0.2-0.6-0.5-0.9-0.9-1c-0.6-0.1-1.1,0.2-1.6,1 C30.4,8,30.2,8.6,30,9.3c-0.1,0.4-0.1,0.8-0.1,1.1c0,0.5,0.1,0.9,0.3,1.4c0.2,0.6,0.5,0.9,0.9,1C31.5,12.9,31.9,12.8,32.4,12.3z  M25.7,5.7c-0.6-1-1.4-1.6-2.5-1.8c-0.3-0.1-0.6-0.1-0.8-0.1c-1.5,0-2.7,0.8-3.7,2.3c-0.8,1.3-1.2,2.8-1.2,4.4 c0,1.2,0.3,2.2,0.8,3.1c0.6,1,1.4,1.6,2.5,1.8c0.3,0.1,0.6,0.1,0.8,0.1c1.5,0,2.7-0.8,3.7-2.3c0.8-1.3,1.2-2.8,1.2-4.4 C26.5,7.6,26.2,6.5,25.7,5.7z M23.8,10c-0.2,1-0.6,1.8-1.2,2.3c-0.5,0.4-0.9,0.6-1.3,0.5c-0.4-0.1-0.7-0.4-0.9-1 c-0.2-0.5-0.3-1-0.3-1.4c0-0.4,0-0.8,0.1-1.1C20.4,8.6,20.6,8,21,7.4c0.5-0.8,1.1-1.1,1.6-1c0.4,0.1,0.7,0.4,0.9,1 c0.2,0.5,0.3,1,0.3,1.4C23.9,9.3,23.8,9.7,23.8,10z"></path><path class="st1" d="M42.2,5.6c-1,1-1.6,2.3-1.6,3.9c0,1.7,0.5,3.1,1.5,4.1c1,1,2.4,1.6,4.1,1.6c0.5,0,1-0.1,1.6-0.3v-2.5 c-0.5,0.2-1,0.2-1.4,0.2c-0.8,0-1.5-0.3-2-0.8c-0.5-0.6-0.8-1.3-0.8-2.3c0-0.9,0.3-1.6,0.7-2.2c0.5-0.6,1.1-0.9,1.9-0.9 c0.5,0,1,0.1,1.6,0.2V4.2C47.4,4.1,46.8,4,46.2,4C44.6,4,43.3,4.5,42.2,5.6z M53.1,4c-1.4,0-2.6,0.5-3.4,1.4c-0.8,1-1.2,2.3-1.2,4 c0,1.9,0.4,3.3,1.2,4.3s2,1.5,3.5,1.5c1.5,0,2.6-0.5,3.4-1.5s1.2-2.4,1.2-4.2c0-1.8-0.4-3.2-1.2-4.1C55.8,4.5,54.6,4,53.1,4z  M54.3,12.1c-0.3,0.4-0.7,0.7-1.2,0.7c-0.5,0-0.9-0.2-1.1-0.7c-0.3-0.4-0.4-1.3-0.4-2.6c0-2,0.5-3.1,1.6-3.1c1.1,0,1.7,1,1.7,3.1 C54.8,10.8,54.6,11.7,54.3,12.1z M65.6,4.3L65,6.7c-0.1,0.6-0.3,1.2-0.4,1.9l-0.3,1.7c-0.3-1.7-0.7-3.6-1.2-5.9h-3.6L58.1,15h2.7 l0.7-7.3l1.9,7.3h1.9l1.8-7.3l0.8,7.3h2.8L69.3,4.3H65.6z M78.6,4.3l-0.6,2.4c-0.1,0.6-0.3,1.2-0.4,1.9l-0.3,1.7 c-0.3-1.7-0.7-3.6-1.2-5.9h-3.6L71.1,15h2.7l0.7-7.3l1.9,7.3h1.9l1.8-7.3l0.8,7.3h2.8L82.3,4.3H78.6z M87.5,10.8H90V8.5h-2.6v-2h2.9 V4.3h-5.8V15h5.8v-2.3h-3V10.8z M98.5,9.1c0.3-0.5,0.5-1,0.5-1.5c0-1-0.4-1.8-1.2-2.4C97,4.6,96,4.3,94.6,4.3h-3.3V15h2.9v-4.9h0 l2.3,4.9h3l-2.3-4.8C97.8,9.9,98.2,9.5,98.5,9.1z M94.1,8.9V6.4c0.7,0,1.2,0.1,1.5,0.3C95.9,6.9,96,7.3,96,7.8 C96,8.5,95.4,8.9,94.1,8.9z M100.7,5.6c-1,1-1.6,2.3-1.6,3.9c0,1.7,0.5,3.1,1.5,4.1c1,1,2.4,1.6,4.1,1.6c0.5,0,1-0.1,1.6-0.3v-2.5 c-0.5,0.2-1,0.2-1.4,0.2c-0.8,0-1.5-0.3-2-0.8c-0.5-0.6-0.8-1.3-0.8-2.3c0-0.9,0.2-1.6,0.7-2.2c0.5-0.6,1.1-0.9,1.9-0.9 c0.5,0,1,0.1,1.6,0.2V4.2c-0.5-0.1-1.1-0.2-1.7-0.2C103.1,4,101.7,4.5,100.7,5.6z M110,12.7v-1.9h2.6V8.5H110v-2h3V4.3h-5.8V15h5.8 v-2.3L110,12.7L110,12.7z"></path></svg>