<svg xmlns="http://www.w3.org/2000/svg" xmlns:xlink="http://www.w3.org/1999/xlink" id="visual" x="0px" y="0px" viewBox="0 0 960 540" style="enable-background:new 0 0 960 540;" xml:space="preserve"><style type="text/css">	.st0{opacity:0.5;fill:#FFFFFF;}	.st1{fill:#FFFFFF;}</style><g transform="translate(960, 0)">	<path class="st0" d="M0,351c-47.3-14.4-94.6-28.8-120.5-60c-26-31.1-30.6-79.1-66.9-103.6c-36.3-24.6-104.3-25.7-136.9-53.1  C-356.8,107-353.9,53.5-351,0H0V351z"></path>	<path class="st1" d="M20,214c-31.5-9.6-63.1-19.2-80.4-40s-20.3-52.7-44.5-69.1c-24.2-16.3-69.6-17.1-91.3-35.4  C-217.9,51.3-215.9,15.7-214-20H20V214z"></path></g><g transform="translate(0, 540)">	<path class="st0" d="M0-351c52.3,2.1,104.7,4.3,130.1,36.9c25.5,32.6,24.1,95.7,58,126s103.1,27.9,136.2,53.8  c33,25.9,29.9,80.1,26.7,134.3H0V-351z"></path>	<path class="st1" d="M-20-214c34.9,1.4,69.8,2.8,86.7,24.6c17,21.7,16.1,63.8,38.7,84s68.8,18.6,90.8,35.9  c22,17.2,19.9,53.4,17.8,89.5H-20V-214z"></path></g></svg>