<svg xmlns="http://www.w3.org/2000/svg" xmlns:xlink="http://www.w3.org/1999/xlink" id="Layer_1" x="0px" y="0px" viewBox="0 0 113 26.9" style="enable-background:new 0 0 113 26.9;" xml:space="preserve"><style type="text/css">	.st0{opacity:0.4;fill-rule:evenodd;clip-rule:evenodd;fill:#FFFFFF;}	.st1{fill-rule:evenodd;clip-rule:evenodd;fill:#FFFFFF;}	.st2{fill:#FFFFFF;}</style><path class="st0" d="M34.7,3.9H3.6C1.6,3.9,0,5.5,0,7.5v11.9c0,2,1.6,3.6,3.6,3.6h14.8l6.7,3.8L23.5,23h11.2c2,0,3.6-1.6,3.6-3.6 V7.5C38.3,5.5,36.7,3.9,34.7,3.9z"></path><path class="st1" d="M2.9,6.7c-0.4,0-0.8,0.2-1,0.5c-0.2,0.3-0.3,0.6-0.3,1c0.9,5.9,1.8,9.8,2.6,11.9c0.3,0.8,0.7,1.1,1.1,1.1 c0.7,0,1.4-1,2.4-2.7c0.5-1,1.2-2.5,2.3-4.5c0.8,3,2,5.2,3.5,6.7c0.4,0.4,0.8,0.6,1.2,0.6c0.4,0,0.6-0.2,0.8-0.6 c0.2-0.3,0.2-0.6,0.2-1c-0.1-1.4,0-3.4,0.4-6C16.5,11,17,9.1,17.6,8c0.1-0.2,0.2-0.5,0.2-0.8c0-0.4-0.2-0.7-0.5-0.9 C17,6.1,16.7,6,16.3,6c-0.5,0-0.8,0.3-1,0.7c-1,1.8-1.7,4.6-2.1,8.6c-0.6-1.5-1.1-3.3-1.5-5.4c-0.2-0.9-0.6-1.4-1.3-1.3 C10,8.7,9.6,9,9.3,9.6l-3.4,6.5c-0.6-2.3-1.1-5-1.6-8.3C4.1,7,3.7,6.6,2.9,6.7z"></path><path class="st1" d="M35.6,9.6c-0.6-1-1.4-1.6-2.5-1.8c-0.3-0.1-0.6-0.1-0.8-0.1c-1.5,0-2.7,0.8-3.7,2.3c-0.8,1.3-1.2,2.8-1.2,4.4 c0,1.2,0.3,2.2,0.8,3.1c0.6,1,1.4,1.6,2.5,1.8c0.3,0.1,0.6,0.1,0.8,0.1c1.5,0,2.7-0.8,3.7-2.3c0.8-1.3,1.2-2.8,1.2-4.4 C36.3,11.5,36.1,10.5,35.6,9.6z M33.6,14c-0.2,1-0.6,1.8-1.2,2.3c-0.5,0.4-0.9,0.6-1.3,0.5c-0.4-0.1-0.7-0.4-0.9-1 c-0.2-0.5-0.3-1-0.3-1.4c0-0.4,0-0.8,0.1-1.1c0.1-0.6,0.4-1.3,0.8-1.9c0.5-0.8,1.1-1.1,1.6-1c0.4,0.1,0.7,0.4,0.9,1 c0.2,0.5,0.3,1,0.3,1.4C33.7,13.2,33.6,13.6,33.6,14z"></path><path class="st1" d="M25.7,9.6c-0.6-1-1.4-1.6-2.5-1.8c-0.3-0.1-0.6-0.1-0.8-0.1c-1.5,0-2.7,0.8-3.7,2.3c-0.8,1.3-1.2,2.8-1.2,4.4 c0,1.2,0.3,2.2,0.8,3.1c0.6,1,1.4,1.6,2.5,1.8c0.3,0.1,0.6,0.1,0.8,0.1c1.5,0,2.7-0.8,3.7-2.3c0.8-1.3,1.2-2.8,1.2-4.4 C26.5,11.5,26.2,10.5,25.7,9.6z M23.8,14c-0.2,1-0.6,1.8-1.2,2.3c-0.5,0.4-0.9,0.6-1.3,0.5c-0.4-0.1-0.7-0.4-0.9-1 c-0.2-0.5-0.3-1-0.3-1.4c0-0.4,0-0.8,0.1-1.1c0.1-0.6,0.4-1.3,0.8-1.9c0.5-0.8,1.1-1.1,1.6-1c0.4,0.1,0.7,0.4,0.9,1 c0.2,0.5,0.3,1,0.3,1.4C23.9,13.2,23.8,13.6,23.8,14z"></path><path class="st2" d="M42.2,9.5c-1,1-1.6,2.3-1.6,3.9c0,1.7,0.5,3.1,1.5,4.1c1,1,2.4,1.6,4.1,1.6c0.5,0,1-0.1,1.6-0.3v-2.5 c-0.5,0.2-1,0.2-1.4,0.2c-0.8,0-1.5-0.3-2-0.8c-0.5-0.6-0.8-1.3-0.8-2.3c0-0.9,0.3-1.6,0.7-2.2c0.5-0.6,1.1-0.9,1.9-0.9 c0.5,0,1,0.1,1.6,0.2V8.2C47.4,8,46.8,8,46.2,8C44.6,7.9,43.3,8.5,42.2,9.5z M53.1,7.9c-1.4,0-2.6,0.5-3.4,1.4c-0.8,1-1.2,2.3-1.2,4 c0,1.9,0.4,3.3,1.2,4.3c0.8,1,2,1.5,3.5,1.5c1.5,0,2.6-0.5,3.4-1.5c0.8-1,1.2-2.4,1.2-4.2c0-1.8-0.4-3.2-1.2-4.1 C55.8,8.4,54.6,7.9,53.1,7.9z M54.3,16.1c-0.3,0.4-0.7,0.7-1.2,0.7c-0.5,0-0.9-0.2-1.1-0.7c-0.3-0.4-0.4-1.3-0.4-2.6 c0-2,0.5-3.1,1.6-3.1c1.1,0,1.7,1,1.7,3.1C54.8,14.8,54.6,15.6,54.3,16.1z M65.6,8.2L65,10.6c-0.1,0.6-0.3,1.2-0.4,1.9l-0.3,1.7 c-0.3-1.7-0.7-3.6-1.2-5.9h-3.6l-1.4,10.7h2.7l0.7-7.3l1.9,7.3h1.9l1.8-7.3l0.8,7.3h2.8L69.3,8.2H65.6z M78.6,8.2l-0.6,2.4 c-0.1,0.6-0.3,1.2-0.4,1.9l-0.3,1.7c-0.3-1.7-0.7-3.6-1.2-5.9h-3.6l-1.4,10.7h2.7l0.7-7.3l1.9,7.3h1.9l1.8-7.3l0.8,7.3h2.8L82.3,8.2 H78.6z M87.5,14.7H90v-2.2h-2.6v-2h2.9V8.2h-5.8v10.7h5.8v-2.3h-3V14.7z M98.5,13c0.3-0.5,0.5-1,0.5-1.5c0-1-0.4-1.8-1.2-2.4 C97,8.5,96,8.2,94.6,8.2h-3.3v10.7h2.9V14h0l2.3,4.9h3l-2.3-4.8C97.8,13.8,98.2,13.5,98.5,13z M94.1,12.8v-2.5 c0.7,0,1.2,0.1,1.5,0.3c0.3,0.2,0.4,0.6,0.4,1.1C96,12.4,95.4,12.8,94.1,12.8z M100.7,9.5c-1,1-1.6,2.3-1.6,3.9 c0,1.7,0.5,3.1,1.5,4.1c1,1,2.4,1.6,4.1,1.6c0.5,0,1-0.1,1.6-0.3v-2.5c-0.5,0.2-1,0.2-1.4,0.2c-0.8,0-1.5-0.3-2-0.8 c-0.5-0.6-0.8-1.3-0.8-2.3c0-0.9,0.2-1.6,0.7-2.2c0.5-0.6,1.1-0.9,1.9-0.9c0.5,0,1,0.1,1.6,0.2V8.2C105.8,8,105.3,8,104.6,8 C103.1,7.9,101.7,8.5,100.7,9.5z M110,16.6v-1.9h2.6v-2.2H110v-2h3V8.2h-5.8v10.7h5.8v-2.3L110,16.6L110,16.6z"></path></svg>