<svg xmlns="http://www.w3.org/2000/svg" xmlns:xlink="http://www.w3.org/1999/xlink" id="Layer_1" x="0px" y="0px" viewBox="0 0 400 77" style="enable-background:new 0 0 400 77;" xml:space="preserve"><style type="text/css">	.st0{fill:#0288D1;}</style><path id="icon-wpb" class="st0" d="M46.6,4.7C50.4,7,51,8.3,55.2,13c6.2,6.8,14,7.6,15.3,7.6c3.7,0.2,7.1-0.8,7.1-1.2 c0-0.3-2.5-0.1-6.2-1c-1.2-0.3-5.3-1.3-5.2-1.9c0,0,17.7-5.7,28.2,4.6c6.1,6.1,7.9,17.2,3.6,25.3c-2.6,4.8-11.8,13-21.4,12 c-0.3,0-5.5,18-5.4,17.6c-1.1-0.9-6-5-19.8-4.3c-5.7,0.3-9.6,3.2-14.2,1c-3.6-1.8-4.6-6.7-4.6-6.6c0.1,0,3.7-0.1,9.9-3.3 c4.9-2.5,6.2-4.9,6.1-5.1c0,0-0.4,0.2-1,0.6c-1.4,0.8-5.3,2.6-9.2,3.5c-11.5,3-29.5-2.1-35.8-18.2C-3.3,29,5.1,16,5.9,14.8 c0.8-1.3,5.3-7,12.1-10.5C25.2,0.7,38.3-0.4,46.6,4.7z"></path><g>	<path class="st0" d="M176.6,23.2l-11.1,34.3h-10.4l-6.6-20.9l-6.9,20.9h-10.4l-11.1-34.3h10l6.9,21.9l7.3-21.9h8.9l6.9,22.1  l7.2-22.1H176.6z"></path>	<path class="st0" d="M203.8,24.7c2.3,1,4,2.5,5.3,4.4c1.2,1.9,1.9,4.2,1.9,6.7c0,2.6-0.6,4.8-1.9,6.7c-1.2,1.9-3,3.4-5.3,4.4  c-2.3,1-5,1.5-8.1,1.5h-6v9h-9.7V23.2h15.7C198.8,23.2,201.5,23.7,203.8,24.7z M199.7,39.6c1-0.9,1.5-2.1,1.5-3.7  c0-1.6-0.5-2.8-1.5-3.7c-1-0.9-2.5-1.3-4.5-1.3h-5.4v10h5.4C197.1,40.9,198.6,40.5,199.7,39.6z"></path>	<path class="st0" d="M246.6,42.8c1.1,1.5,1.7,3.2,1.7,5.3c0,3-1.2,5.3-3.6,7c-2.4,1.6-5.9,2.5-10.5,2.5h-18.5V23.2h17.5  c4.4,0,7.7,0.8,10,2.4c2.3,1.6,3.4,3.8,3.4,6.5c0,1.6-0.4,3.1-1.2,4.4c-0.8,1.3-1.9,2.3-3.4,3.1C244,40.3,245.5,41.4,246.6,42.8z   M225.3,30.2v6.6h6.7c3.3,0,4.9-1.1,4.9-3.3c0-2.2-1.6-3.3-4.9-3.3H225.3z M238.5,47c0-2.3-1.7-3.5-5.1-3.5h-8.1v7h8.1  C236.8,50.5,238.5,49.3,238.5,47z"></path>	<path class="st0" d="M274.3,33.5c2.3,2,3.5,5.1,3.5,9.2v14.7h-8.7v-3.4c-1.3,2.6-4,3.9-7.8,3.9c-2.1,0-3.8-0.4-5.3-1.1  c-1.5-0.7-2.6-1.7-3.4-2.9c-0.8-1.2-1.2-2.6-1.2-4.2c0-2.5,1-4.5,2.9-5.9s4.9-2.1,8.9-2.1h5.3c-0.2-2.8-2-4.2-5.6-4.2  c-1.3,0-2.6,0.2-3.9,0.6c-1.3,0.4-2.4,1-3.3,1.7l-3.1-6.3c1.5-1,3.3-1.7,5.4-2.3c2.1-0.5,4.2-0.8,6.3-0.8  C268.6,30.5,272,31.5,274.3,33.5z M266.7,51.3c0.8-0.5,1.4-1.3,1.8-2.3v-2.3h-4c-2.7,0-4.1,0.9-4.1,2.7c0,0.8,0.3,1.5,0.9,2  s1.5,0.7,2.5,0.7C265,52.1,265.9,51.8,266.7,51.3z"></path>	<path class="st0" d="M295.7,48.2L293,51v6.5h-9.3V21.1h9.3v19.1l9.5-9.3h11l-11,11.4l12,15.2h-11.3L295.7,48.2z"></path>	<path class="st0" d="M343.1,46.6h-19.3c0.4,1.4,1.2,2.4,2.3,3.2c1.1,0.7,2.5,1.1,4.2,1.1c1.3,0,2.4-0.2,3.3-0.5  c0.9-0.4,1.9-0.9,2.8-1.8l4.9,5.1c-2.6,2.9-6.4,4.3-11.3,4.3c-3.1,0-5.8-0.6-8.2-1.8s-4.2-2.8-5.5-4.9c-1.3-2.1-1.9-4.5-1.9-7.1  c0-2.6,0.6-5,1.9-7s3-3.7,5.2-4.9c2.2-1.2,4.7-1.8,7.5-1.8c2.6,0,5,0.5,7.2,1.6c2.2,1.1,3.9,2.7,5.1,4.8c1.3,2.1,1.9,4.5,1.9,7.4  C343.3,44.3,343.2,45.1,343.1,46.6z M325.5,38.3c-1,0.8-1.6,1.9-1.8,3.3h10.9c-0.3-1.4-0.9-2.5-1.8-3.3c-1-0.8-2.2-1.2-3.6-1.2  C327.7,37.1,326.5,37.5,325.5,38.3z"></path>	<path class="st0" d="M360.2,31.4c1.5-0.6,3.3-0.9,5.2-0.9v8.4c-0.9-0.1-1.6-0.1-2.1-0.1c-2,0-3.6,0.5-4.7,1.6s-1.7,2.7-1.7,4.9  v12.2h-9.3V30.9h8.9v3.2C357.4,32.9,358.6,32,360.2,31.4z"></path>	<path class="st0" d="M398,30.9l-11.5,27.6c-1.3,3.3-3,5.6-4.9,6.9c-1.9,1.3-4.3,2-7.1,2c-1.4,0-2.8-0.2-4.2-0.7  c-1.4-0.4-2.6-1-3.5-1.7l3.2-6.5c0.5,0.5,1.2,0.9,1.9,1.2c0.7,0.3,1.5,0.4,2.2,0.4c0.9,0,1.6-0.2,2.2-0.5s1.1-0.9,1.4-1.7  l-11.4-26.9h9.6l6.5,16.2l6.6-16.2H398z"></path></g></svg>